<?xml version="1.0" standalone="no"?>
<!DOCTYPE svg PUBLIC "-//W3C//DTD SVG 20010904//EN"
 "http://www.w3.org/TR/2001/REC-SVG-20010904/DTD/svg10.dtd">
<svg version="1.0" xmlns="http://www.w3.org/2000/svg"
 width="300.000000pt" height="300.000000pt" viewBox="0 0 300.000000 300.000000"
 preserveAspectRatio="xMidYMid meet">
<metadata>
Created by potrace 1.10, written by Peter Selinger 2001-2011
</metadata>
<g transform="translate(0.000000,300.000000) scale(0.100000,-0.100000)"
fill="#000000" stroke="none">
<path d="M508 2993 c-10 -2 -18 -11 -18 -18 0 -7 -12 -23 -26 -34 -15 -12 -22
-21 -17 -21 15 0 62 39 73 61 6 10 9 18 8 18 -2 -1 -11 -3 -20 -6z"/>
<path d="M2070 2990 c-14 -4 -19 -8 -12 -9 7 -1 12 -15 12 -33 0 -49 27 -188
55 -292 59 -216 50 -422 -23 -556 -32 -59 -39 -69 -97 -135 -49 -55 -85 -71
-85 -37 0 33 -48 117 -86 152 -44 40 -113 89 -174 124 l-41 23 36 22 c45 26
85 108 92 192 5 51 3 59 -11 59 -27 0 -78 29 -118 68 -46 43 -61 36 -24 -12
29 -38 69 -70 104 -80 12 -4 22 -12 22 -17 0 -18 -41 -134 -56 -156 -18 -29
-61 -30 -114 -3 -35 18 -90 75 -90 95 0 4 -11 20 -25 37 -37 44 -29 88 16 88
21 0 30 -13 38 -53 9 -44 28 -44 41 0 5 21 17 47 25 57 15 20 20 56 8 56 -4 0
-17 -12 -29 -27 -20 -25 -25 -26 -43 -15 -70 42 -136 -33 -100 -112 10 -22 8
-30 -14 -59 -14 -19 -29 -51 -33 -71 -10 -56 -36 -78 -169 -146 -169 -87 -221
-144 -159 -175 12 -6 28 -16 36 -23 8 -6 19 -8 23 -4 5 4 5 -1 2 -11 -4 -10
-3 -16 2 -12 5 3 11 -1 14 -7 3 -10 8 -10 17 -2 18 17 -37 74 -80 83 l-34 7
58 36 c32 20 116 67 186 103 135 71 140 76 140 150 0 12 16 38 35 58 l34 35
12 -36 c18 -57 46 -108 80 -147 32 -36 59 -46 59 -20 0 18 156 -80 212 -133
39 -37 72 -102 83 -164 4 -21 10 -38 14 -38 9 0 129 122 163 165 42 52 57 82
82 157 47 139 44 285 -9 489 -33 129 -47 213 -47 282 0 31 -1 57 -1 56 -1 -1
-13 -5 -27 -9z"/>
<path d="M2110 2958 c0 -53 23 -188 49 -282 33 -121 44 -218 38 -338 -8 -185
-53 -282 -199 -429 l-87 -87 20 -99 19 -98 -5 93 c-5 105 -3 112 67 187 26 27
54 59 62 70 11 15 17 17 27 8 7 -7 9 -19 4 -30 -4 -10 -9 -24 -11 -31 -1 -8
-10 -22 -18 -31 -11 -12 -16 -34 -15 -65 2 -50 19 -43 19 8 0 16 6 37 14 45 7
9 23 46 36 84 12 38 30 71 40 77 32 17 166 12 185 -6 20 -21 29 -13 12 10 -13
17 -65 25 -176 26 -37 0 -42 2 -31 15 7 8 10 15 6 15 -4 0 2 17 13 38 10 20
22 53 26 72 14 67 21 72 54 39 35 -34 38 -35 70 -8 21 17 23 24 15 47 -11 32
-62 43 -84 18 -23 -29 -30 -17 -30 50 0 36 4 63 8 60 5 -3 1 18 -9 47 -10 29
-18 62 -19 74 0 13 -16 89 -35 170 -19 82 -36 179 -39 218 -5 77 -26 104 -26
33z m197 -669 c14 -14 6 -39 -12 -39 -18 0 -28 17 -21 35 6 18 18 19 33 4z"/>
<path d="M2364 2992 c-14 -9 -15 -14 -18 -164 -2 -71 0 -128 4 -128 8 0 9 -5
16 -77 3 -29 11 -53 17 -53 6 0 7 -3 4 -6 -3 -4 -2 -15 4 -26 17 -32 37 -119
34 -147 -2 -14 3 -41 11 -59 9 -18 13 -40 10 -48 -3 -8 -2 -14 3 -14 4 0 8 -8
9 -17 3 -58 2 -214 -3 -252 -5 -40 -4 -42 6 -21 16 37 23 163 14 273 -6 79
-10 97 -23 97 -11 0 -13 3 -5 11 11 11 6 34 -52 239 -34 121 -44 282 -22 353
15 46 13 54 -9 39z"/>
<path d="M521 2959 c-13 -17 -42 -39 -64 -50 -23 -10 -37 -19 -30 -19 22 0 67
24 101 55 19 16 41 33 50 37 13 5 10 7 -9 7 -17 1 -32 -9 -48 -30z"/>
<path d="M1406 2964 c-8 -31 4 -47 30 -42 14 2 19 13 20 36 1 27 -3 32 -21 32
-16 0 -25 -8 -29 -26z"/>
<path d="M1885 2963 c0 -48 47 -40 50 9 1 13 -6 18 -25 18 -22 0 -26 -4 -25
-27z"/>
<path d="M315 2942 c-16 -8 -35 -15 -44 -16 -9 -2 -30 -21 -47 -44 -18 -22
-35 -38 -38 -34 -4 3 -4 -1 0 -11 4 -12 1 -17 -9 -17 -9 0 -19 -5 -23 -12 -5
-7 -2 -9 7 -3 8 4 -15 -20 -50 -54 -35 -33 -68 -61 -73 -61 -13 0 -42 -30 -35
-37 9 -9 88 42 124 79 17 18 53 62 80 98 48 65 85 90 153 108 34 8 34 8 9 14
-15 2 -39 -2 -54 -10z"/>
<path d="M919 2938 c-10 -18 -8 -24 7 -35 24 -18 49 5 39 36 -8 27 -31 27 -46
-1z"/>
<path d="M300 2902 c-21 -10 -59 -49 -97 -101 -64 -86 -98 -117 -168 -153 -53
-28 -29 -35 27 -9 56 27 114 82 162 153 21 32 43 55 49 51 6 -4 7 -1 3 6 -9
14 23 43 37 34 5 -3 3 -9 -4 -14 -11 -7 -11 -9 -1 -9 7 0 15 6 18 14 3 8 12
12 19 10 7 -3 18 4 25 15 9 18 8 21 -12 21 -13 0 -39 -8 -58 -18z"/>
<path d="M690 2895 c-17 -20 -5 -45 20 -45 11 0 23 7 26 15 6 15 -11 45 -26
45 -4 0 -13 -7 -20 -15z"/>
<path d="M1720 2895 c-16 -19 -5 -47 17 -43 11 2 18 12 18 27 0 29 -17 37 -35
16z"/>
<path d="M1060 2858 c-27 -29 -25 -64 5 -93 30 -30 54 -31 89 -4 33 26 34 68
3 97 -30 28 -71 28 -97 0z m78 -20 c32 -32 -8 -80 -48 -58 -34 18 -19 70 20
70 9 0 21 -5 28 -12z"/>
<path d="M1276 2844 c-4 -10 -2 -22 3 -27 14 -14 43 0 39 20 -4 24 -34 28 -42
7z"/>
<path d="M1932 2831 c-20 -12 -10 -46 14 -49 25 -4 40 24 23 44 -13 16 -19 17
-37 5z"/>
<path d="M604 2809 c-10 -17 13 -36 27 -22 12 12 4 33 -11 33 -5 0 -12 -5 -16
-11z"/>
<path d="M1473 2803 c-18 -7 -46 -31 -61 -52 -16 -22 -42 -51 -59 -65 -33 -28
-53 -81 -46 -120 9 -44 23 -40 23 7 0 50 26 91 64 101 16 4 25 15 29 36 8 37
58 70 108 70 20 0 62 -9 94 -20 70 -24 87 -25 125 -5 28 14 30 14 30 -3 0 -9
-7 -28 -16 -40 -15 -22 -15 -22 26 -22 33 0 48 -6 72 -30 25 -26 29 -36 24
-62 -3 -18 -16 -42 -27 -54 -11 -12 -17 -24 -12 -27 23 -14 73 56 73 101 0 28
-7 41 -36 66 -20 17 -53 48 -74 69 -35 35 -40 37 -83 31 -25 -4 -54 -3 -64 1
-21 10 -15 8 -78 22 -60 14 -70 14 -112 -4z"/>
<path d="M2967 2789 c-20 -16 -26 -26 -21 -42 5 -15 3 -19 -9 -14 -29 11 -101
-93 -137 -198 -24 -69 -57 -322 -43 -336 5 -5 9 -2 9 9 1 24 13 150 20 197 8
57 43 174 62 204 45 74 68 104 89 112 14 5 23 17 23 30 0 12 8 23 20 26 11 3
20 12 20 19 0 17 1 18 -33 -7z"/>
<path d="M267 2767 c-22 -15 -13 -47 13 -47 23 0 34 30 17 47 -10 11 -16 11
-30 0z"/>
<path d="M468 2759 c-55 -8 -99 -33 -147 -83 -23 -23 -44 -36 -61 -36 -49 0
-172 -38 -196 -61 -62 -58 -3 -115 152 -144 11 -2 27 -4 37 -4 11 -1 35 -17
54 -36 75 -75 120 -92 183 -68 l35 13 -46 -6 c-55 -7 -93 10 -133 56 -32 39
-34 55 -3 45 12 -4 40 -10 62 -12 22 -3 46 -10 54 -17 12 -8 13 -8 7 2 -6 10
4 13 46 12 71 -1 139 6 162 15 16 7 18 5 13 -9 -4 -10 -7 -19 -7 -22 0 -2 -14
-11 -31 -19 -17 -9 -28 -19 -25 -22 3 -3 27 8 53 25 31 20 80 38 140 51 153
33 194 81 125 145 -20 18 -146 56 -186 56 -12 0 -41 19 -66 41 -73 66 -142 90
-222 78z m151 -57 c25 -15 55 -42 66 -60 14 -22 30 -33 55 -37 141 -23 214
-52 204 -80 -7 -18 -108 -50 -187 -60 -31 -4 -57 -10 -57 -14 0 -9 -417 6
-476 17 -83 17 -133 34 -150 53 -14 16 -14 19 10 34 29 19 107 40 184 50 28 4
52 12 52 18 1 13 24 42 57 70 62 54 165 57 242 9z"/>
<path d="M245 2571 c-93 -21 -106 -30 -71 -48 46 -24 193 -36 396 -30 180 5
261 15 284 38 12 11 -45 35 -99 41 l-41 6 4 -35 4 -34 -211 2 -211 2 0 27 c0
14 5 31 12 38 7 7 10 11 8 11 -3 -1 -37 -9 -75 -18z"/>
<path d="M833 2754 c-8 -20 17 -36 34 -22 10 8 10 14 2 24 -15 18 -28 18 -36
-2z"/>
<path d="M752 2748 c-30 -30 1 -78 37 -58 25 13 26 20 5 46 -15 19 -15 18 -11
-3 5 -24 -6 -38 -23 -28 -7 4 -6 13 1 26 13 24 8 34 -9 17z"/>
<path d="M1459 2719 c-16 -17 -29 -37 -29 -45 0 -8 -6 -14 -14 -14 -7 0 -25
-9 -40 -21 -22 -17 -26 -28 -25 -67 l1 -47 15 43 c8 25 26 50 41 59 15 9 45
34 66 56 35 35 43 39 77 34 21 -3 64 -21 96 -41 32 -19 77 -39 101 -45 49 -11
82 -36 82 -63 0 -24 17 -23 25 1 8 25 -10 68 -34 80 -11 6 -32 11 -48 11 -16
0 -44 9 -63 20 -103 59 -131 70 -176 70 -39 0 -51 -5 -75 -31z"/>
<path d="M895 2730 c-4 -7 -3 -16 3 -22 14 -14 45 -2 40 15 -6 16 -34 21 -43
7z"/>
<path d="M2000 2705 c-26 -31 18 -71 47 -42 19 19 8 57 -16 57 -10 0 -24 -7
-31 -15z"/>
<path d="M2671 2620 c1 -81 4 -100 16 -100 13 0 13 3 3 15 -10 12 -10 15 0 15
10 0 10 3 0 15 -11 14 -7 19 13 16 4 0 7 4 7 10 0 5 5 7 12 3 7 -4 8 -3 4 4
-4 6 -13 9 -20 6 -20 -8 -29 12 -15 37 6 13 7 19 1 15 -7 -4 -10 5 -10 23 1
18 5 28 11 24 6 -3 7 -1 3 5 -19 32 -27 6 -25 -88z"/>
<path d="M1115 2600 c-15 -17 -16 -24 -7 -45 14 -31 51 -33 77 -5 17 18 17 21
1 45 -20 30 -46 32 -71 5z m55 -25 c0 -19 -20 -29 -32 -17 -15 15 -2 43 17 36
8 -3 15 -12 15 -19z"/>
<path d="M2985 2572 c-31 -21 -99 -163 -124 -257 -26 -98 -41 -174 -41 -201 1
-16 16 30 34 101 38 148 63 213 112 303 19 34 34 62 32 62 -2 0 -8 -4 -13 -8z"/>
<path d="M2959 2470 c-20 -41 -44 -99 -54 -129 -24 -72 -92 -352 -84 -343 4 4
21 54 39 112 17 58 43 137 57 175 13 39 30 87 36 108 6 20 15 37 20 37 4 0 5
5 2 10 -3 6 -1 10 5 10 6 0 9 4 6 9 -4 5 -1 11 5 13 6 2 9 19 7 38 -3 34 -4
33 -39 -40z"/>
<path d="M2681 2499 c-1 -21 19 -180 26 -199 10 -30 2 -231 -13 -286 -42 -161
-136 -331 -252 -455 -90 -96 -258 -215 -345 -244 -21 -7 -21 -8 5 -12 30 -5
63 11 163 76 172 112 296 256 383 443 12 26 22 52 22 58 0 5 5 10 10 10 6 0 9
3 9 8 -1 4 -1 9 1 12 1 3 4 16 6 30 2 14 11 43 19 65 9 22 17 59 19 83 2 24 7
46 10 49 3 4 1 12 -5 19 -15 18 -18 94 -5 94 8 0 7 3 0 8 -6 4 -12 26 -13 50
-3 75 -6 90 -13 85 -11 -6 -10 5 3 29 8 15 8 19 0 14 -6 -4 -11 -1 -11 8 0 8
5 18 10 21 6 3 10 12 9 18 0 9 -2 9 -6 0 -8 -20 -21 -15 -26 10 -2 12 -5 15
-6 6z"/>
<path d="M1182 2478 c-28 -28 2 -67 34 -43 15 11 17 18 8 31 -14 23 -27 27
-42 12z"/>
<path d="M1907 2457 c-22 -16 -13 -47 14 -47 25 0 36 28 17 46 -11 12 -17 12
-31 1z"/>
<path d="M67 2376 c-7 -19 18 -40 39 -32 8 3 14 14 12 23 -4 22 -43 29 -51 9z"/>
<path d="M214 2375 c-7 -18 3 -35 21 -35 15 0 24 19 18 38 -6 17 -32 15 -39
-3z"/>
<path d="M853 2365 c-12 -9 -25 -31 -29 -51 -5 -28 -2 -40 17 -60 46 -49 129
-18 129 50 0 61 -67 96 -117 61z m75 -21 c26 -18 28 -50 5 -76 -20 -22 -42
-23 -71 -2 -27 19 -28 48 -2 74 24 24 38 25 68 4z"/>
<path d="M1085 2362 c-33 -4 -45 -16 -45 -49 0 -28 17 -33 124 -38 82 -4 87
-3 102 20 11 18 13 29 5 43 -12 23 -68 34 -93 19 -11 -7 -24 -8 -40 -1 -13 5
-36 8 -53 6z m33 -39 c-2 -19 -10 -29 -23 -31 -16 -3 -18 -1 -7 9 6 7 12 17
12 22 0 4 -6 5 -12 1 -9 -5 -9 -2 1 9 20 25 33 21 29 -10z m38 5 c10 -12 13
-18 6 -14 -7 4 -15 1 -18 -8 -3 -9 -10 -16 -15 -16 -6 0 -6 7 -1 18 5 9 7 23
5 30 -7 18 2 15 23 -10z m97 -18 c-7 -28 -33 -25 -33 3 0 13 3 27 7 30 11 12
31 -13 26 -33z m-45 5 c-2 -23 -18 -37 -18 -16 0 5 -3 16 -6 25 -4 11 -1 16
10 16 11 0 15 -8 14 -25z"/>
<path d="M1900 2335 c-7 -8 -10 -21 -7 -29 3 -7 -1 -23 -9 -35 -19 -27 -10
-59 22 -73 44 -20 86 41 49 72 -8 7 -15 23 -15 35 0 32 -24 50 -40 30z m38
-93 c2 -14 -2 -22 -12 -22 -19 0 -29 17 -22 36 8 22 30 12 34 -14z"/>
<path d="M101 2274 c-26 -33 -26 -36 3 -63 23 -22 25 -22 50 -6 32 21 33 45 3
73 -29 28 -31 28 -56 -4z m39 -5 c0 -7 8 -18 18 -25 15 -12 15 -13 0 -14 -9 0
-18 -6 -20 -12 -3 -9 -10 -7 -24 6 -13 14 -15 21 -6 24 6 2 12 10 12 18 0 8 5
14 10 14 6 0 10 -5 10 -11z"/>
<path d="M681 2264 c11 -13 5 -19 -16 -14 -5 1 -7 -2 -3 -6 12 -11 77 -14 84
-3 3 6 1 16 -5 22 -9 9 -11 8 -6 -5 5 -13 2 -18 -10 -18 -11 0 -15 5 -12 14 4
9 -3 16 -19 19 -19 3 -22 2 -13 -9z"/>
<path d="M2582 2207 c-27 -29 -28 -47 -2 -75 28 -29 64 -28 84 3 19 29 8 68
-23 84 -28 15 -35 14 -59 -12z m67 -21 c15 -18 -2 -56 -24 -56 -12 0 -45 25
-45 35 0 34 47 48 69 21z"/>
<path d="M1780 2205 c-18 -21 -5 -47 22 -43 26 3 37 36 16 49 -18 12 -24 11
-38 -6z"/>
<path d="M636 2187 c-28 -23 -29 -47 -2 -47 20 0 50 37 36 45 -5 3 -8 11 -5
16 9 14 2 11 -29 -14z"/>
<path d="M470 2182 c-19 -16 -21 -22 -11 -40 15 -27 33 -28 56 -2 18 20 18 21
-1 41 -20 20 -21 20 -44 1z"/>
<path d="M1347 2159 c-18 -20 -14 -43 6 -36 7 2 35 -7 62 -20 62 -28 99 -29
148 -3 l39 21 42 -25 c83 -48 155 -143 156 -203 0 -12 5 -25 11 -29 16 -10 3
89 -16 126 -19 37 -102 110 -158 140 l-44 24 -28 -22 c-18 -15 -42 -22 -69
-22 -43 0 -102 29 -112 55 -8 19 -15 18 -37 -6z"/>
<path d="M812 2142 c-17 -12 -4 -42 18 -42 25 0 35 18 20 35 -14 17 -20 18
-38 7z"/>
<path d="M200 2122 c-28 -23 -30 -77 -3 -98 29 -22 79 -17 97 8 49 69 -29 143
-94 90z m83 -23 c14 -23 1 -67 -23 -74 -43 -14 -82 35 -60 75 14 25 67 25 83
-1z"/>
<path d="M1306 2125 c-3 -8 -13 -15 -21 -15 -9 0 -14 -4 -10 -10 6 -10 55 8
55 21 0 16 -18 19 -24 4z"/>
<path d="M2950 2074 c-25 -52 -35 -64 -48 -59 -29 11 -34 10 -45 -6 -14 -22
-2 -49 23 -49 18 0 20 -4 14 -22 -3 -13 -14 -34 -24 -48 -10 -14 -28 -45 -40
-70 -18 -36 -90 -140 -110 -160 -3 -3 -20 -27 -39 -55 -18 -27 -70 -86 -115
-130 -46 -44 -71 -71 -57 -60 78 60 261 255 261 279 0 3 16 28 35 55 20 27 67
116 106 198 83 173 91 193 80 193 -5 0 -23 -30 -41 -66z"/>
<path d="M1215 2082 c-30 -6 -58 -34 -44 -43 18 -11 41 1 35 18 -3 8 -1 11 4
8 5 -3 22 1 37 9 29 15 18 18 -32 8z"/>
<path d="M2945 1981 c-27 -63 -69 -146 -93 -184 -40 -66 -42 -71 -26 -88 28
-31 -3 -68 -32 -39 -8 8 -20 -1 -39 -27 -65 -87 -141 -165 -216 -225 -95 -74
-124 -92 -94 -58 13 14 -8 5 -55 -25 -181 -116 -274 -166 -373 -199 -122 -42
-133 -43 -141 -13 -9 35 -7 530 3 546 7 11 10 10 14 -5 17 -57 25 -136 17
-163 -10 -37 -4 -77 16 -109 18 -27 72 -62 96 -62 9 0 21 -7 26 -17 8 -14 14
-10 36 25 14 23 43 75 64 114 20 40 50 85 67 100 27 24 28 26 8 21 -27 -6 -27
-6 -8 40 8 20 15 39 15 42 0 3 -20 5 -45 5 -25 0 -45 -3 -45 -7 0 -4 12 -24
26 -45 l26 -37 -46 -84 c-47 -87 -78 -117 -120 -117 -38 0 -55 10 -71 41 -30
56 -21 83 55 163 63 66 69 75 50 81 -22 7 -26 37 -10 79 5 14 6 26 1 26 -12 0
-35 -76 -27 -95 4 -11 -5 -30 -24 -53 -16 -20 -30 -45 -30 -54 0 -23 -17 -23
-24 0 -3 9 -17 75 -31 146 -29 139 -62 256 -73 256 -8 0 -6 -270 4 -647 5
-187 9 -243 19 -243 31 0 192 53 261 86 42 20 113 60 157 90 51 34 69 43 47
23 -103 -92 -281 -176 -452 -213 -26 -6 -28 -10 -28 -56 l0 -49 33 4 c17 2 65
6 105 9 53 4 85 12 121 32 61 33 83 55 163 169 84 119 135 153 288 195 144 40
200 69 273 145 58 60 157 197 157 218 0 16 -43 -28 -80 -81 -18 -26 -52 -63
-75 -83 -36 -30 -50 -36 -96 -37 -38 -2 -50 0 -39 7 8 6 15 14 15 19 0 19 72
89 98 96 31 7 49 42 36 67 -8 16 13 68 34 81 6 4 19 0 28 -8 15 -13 18 -13 33
2 16 15 16 18 0 35 -9 10 -21 16 -25 13 -5 -3 -9 1 -9 8 1 23 54 147 73 169
11 13 17 33 15 52 -3 28 -10 17 -53 -82z m-150 -491 c-3 -5 -37 -10 -76 -10
-39 0 -69 4 -69 10 0 6 32 10 76 10 47 0 73 -4 69 -10z m-106 -47 c-6 -7 -15
-11 -19 -8 -5 3 -10 1 -12 -4 -1 -5 -20 -12 -40 -16 -45 -9 -49 4 -12 38 23
22 30 23 60 14 26 -8 31 -13 23 -24z m-494 -320 c-23 -36 -51 -63 -66 -63 -6
0 -18 8 -25 18 -11 15 -7 20 39 44 66 34 73 34 52 1z m-141 -79 c4 -15 4 -29
1 -32 -3 -4 -42 -6 -87 -7 -118 0 -115 22 7 53 64 15 72 14 79 -14z"/>
<path d="M715 2005 c-28 -17 -34 -24 -21 -25 11 0 27 7 37 16 26 23 67 11 75
-23 9 -34 -6 -56 -42 -64 -16 -4 -22 -8 -14 -9 25 -4 45 1 52 13 23 37 22 37
83 22 33 -8 65 -14 70 -14 21 0 -21 17 -58 23 -24 5 -50 20 -76 46 -22 22 -45
40 -53 40 -7 0 -31 -11 -53 -25z"/>
<path d="M2183 2022 c-12 -7 -123 -312 -123 -337 0 -15 219 -27 235 -13 14 12
27 10 19 -4 -4 -7 -3 -8 4 -4 7 4 17 17 22 29 11 22 11 22 -6 2 -17 -20 -17
-20 -9 0 4 11 14 48 22 83 13 63 7 102 -18 102 -6 0 -6 -6 0 -18 6 -11 6 -24
1 -33 -5 -7 -7 -22 -4 -31 3 -9 1 -25 -4 -35 -45 -91 -48 -93 -115 -64 -44 19
-67 48 -29 37 9 -3 35 -8 57 -12 58 -10 34 9 -27 21 -28 6 -53 16 -56 24 -4
12 7 13 62 8 80 -8 81 8 1 18 -39 5 -55 12 -55 22 0 13 13 15 70 11 39 -2 70
-1 70 3 0 9 -38 19 -71 19 -15 0 -29 7 -33 15 -4 12 5 15 53 15 l59 0 22 65
c12 35 19 69 15 75 -7 12 -144 14 -162 2z m114 -48 c10 -27 -11 -49 -53 -55
-21 -3 -47 -9 -56 -14 -16 -6 -16 -4 -8 21 17 46 104 81 117 48z"/>
<path d="M390 1983 c-100 -17 -240 -69 -256 -95 -3 -5 18 3 47 17 29 15 92 37
141 49 48 13 91 26 95 29 3 4 4 6 2 6 -2 -1 -15 -4 -29 -6z"/>
<path d="M745 1970 c-8 -14 3 -30 21 -30 8 0 14 9 14 20 0 21 -24 28 -35 10z"/>
<path d="M680 1959 c-14 -5 -65 -15 -115 -23 -172 -27 -295 -74 -432 -165 -34
-22 -77 -48 -97 -58 -20 -9 -36 -23 -36 -31 0 -15 74 23 164 85 115 79 227
119 424 152 92 15 105 16 125 2 18 -12 20 -12 11 -1 -7 8 -13 22 -15 31 -3 12
-10 14 -29 8z"/>
<path d="M323 1940 c-66 -17 -141 -49 -119 -50 5 0 37 9 70 20 34 10 84 26
111 34 74 21 21 18 -62 -4z"/>
<path d="M957 1894 c-25 -86 -87 -416 -87 -459 0 -8 7 -11 20 -8 15 4 19 11
14 25 -4 15 -3 18 7 13 9 -6 11 -4 6 7 -3 9 1 27 8 42 8 15 9 24 3 20 -6 -4
-9 -1 -6 7 3 8 9 13 14 12 5 0 15 5 22 13 12 13 10 14 -12 8 -21 -5 -26 -3
-26 12 0 16 2 17 11 4 7 -11 8 -4 3 24 -4 24 -3 37 3 33 5 -3 10 0 10 8 0 8
-4 12 -9 9 -10 -6 -11 10 -1 19 3 4 8 32 10 63 3 30 10 75 17 99 8 24 10 49 6
55 -6 9 -9 7 -13 -6z"/>
<path d="M2964 1885 c-7 -18 3 -35 22 -35 8 0 14 10 14 25 0 27 -27 35 -36 10z"/>
<path d="M1170 1603 c0 -173 -11 -274 -35 -335 -5 -13 -2 -18 12 -18 17 0 19
-8 21 -62 1 -47 13 -96 46 -188 l45 -124 -31 -81 c-17 -44 -33 -83 -37 -87 -3
-4 -46 59 -95 140 -49 81 -90 149 -92 150 -7 10 -187 -94 -236 -135 -111 -95
-203 -234 -219 -331 -27 -170 -66 -310 -107 -387 -15 -27 -48 -71 -73 -97 -25
-27 -42 -48 -38 -48 17 0 89 88 123 151 34 63 93 248 120 377 13 61 59 147
115 220 21 26 32 32 59 30 37 -2 52 13 44 44 -3 13 4 28 21 44 14 13 29 24 33
24 3 0 34 17 67 37 l60 36 22 -26 c33 -42 87 -135 89 -153 1 -11 -26 -30 -81
-59 -187 -98 -282 -213 -356 -432 -20 -60 -55 -149 -77 -197 -45 -98 -44 -96
-29 -96 15 0 80 145 124 275 52 156 88 218 180 311 76 76 172 137 253 159 47
13 19 -12 -33 -30 -176 -59 -321 -227 -385 -445 -12 -41 -37 -108 -56 -149
-19 -41 -34 -75 -34 -77 0 -13 43 0 82 25 57 36 84 74 118 167 49 130 120 207
245 265 45 22 63 35 56 42 -13 13 -90 -15 -147 -54 -86 -58 -168 -171 -193
-266 -11 -41 -104 -153 -116 -141 -11 10 88 271 123 327 43 67 98 128 132 146
14 7 26 23 27 35 2 28 6 31 40 35 49 5 148 53 145 70 -4 20 19 19 57 -2 30
-18 31 -18 57 9 34 34 76 155 63 180 -8 15 -6 18 11 18 11 0 20 5 20 10 0 6
-6 10 -13 10 -19 0 -97 211 -107 286 -4 34 -10 66 -14 72 -3 5 -2 32 4 59 5
28 10 91 11 142 2 109 14 117 53 34 32 -71 53 -107 89 -155 32 -42 28 -68 -6
-45 -43 27 -63 29 -32 2 35 -29 193 -111 200 -103 3 3 -26 37 -64 76 -117 120
-206 291 -236 455 -16 86 -25 38 -25 -140z"/>
<path d="M535 1689 c-121 -12 -193 -39 -309 -118 -56 -38 -98 -51 -168 -51
-78 0 -76 -24 3 -28 70 -4 120 11 189 58 140 95 190 108 457 117 166 5 191 8
171 19 -25 14 -219 16 -343 3z"/>
<path d="M2945 1610 c-16 -16 -26 -32 -24 -35 3 -3 18 9 34 25 16 16 26 32 24
35 -3 3 -18 -9 -34 -25z"/>
<path d="M400 1505 c-10 -12 -10 -18 0 -30 20 -25 55 -15 55 15 0 30 -35 40
-55 15z"/>
<path d="M715 1445 c-120 -31 -282 -100 -413 -175 -123 -70 -317 -223 -289
-228 21 -4 21 -12 2 -38 -38 -51 -6 -28 88 62 133 129 292 233 432 285 33 12
65 25 70 29 15 10 100 37 174 55 73 16 103 35 56 34 -17 0 -70 -11 -120 -24z"/>
<path d="M763 1389 c-35 -11 -63 -24 -63 -30 0 -5 14 -2 31 7 18 9 56 17 85
17 36 1 54 6 54 15 0 17 -33 14 -107 -9z"/>
<path d="M2767 1384 c-4 -4 -7 -13 -7 -21 0 -11 21 -13 103 -11 83 2 102 6
102 18 0 12 -19 16 -95 18 -53 1 -99 0 -103 -4z"/>
<path d="M600 1329 c-136 -63 -209 -102 -207 -113 1 -6 -4 -10 -11 -8 -20 4
-135 -83 -193 -146 -29 -31 -79 -91 -112 -132 -60 -74 -60 -75 -34 -78 16 -2
27 -10 27 -18 0 -9 -5 -12 -12 -8 -7 4 -8 3 -4 -5 6 -9 11 -9 22 0 13 10 12
15 -7 35 l-21 22 84 94 c68 75 91 94 116 96 26 3 33 9 40 34 5 22 23 42 57 65
28 18 55 37 62 43 18 15 20 13 32 -20 5 -16 15 -30 20 -30 14 0 14 13 0 27
-14 14 -3 33 18 33 11 0 14 -7 10 -26 -4 -24 -3 -24 11 -10 13 12 13 19 4 28
-7 7 -12 21 -12 31 0 15 5 18 21 14 15 -4 23 0 26 13 3 11 35 32 81 54 43 19
70 35 62 35 -8 0 -44 -14 -80 -30z"/>
<path d="M815 1276 c-80 -20 -225 -97 -327 -174 -32 -24 -62 -41 -67 -38 -5 3
-12 -5 -15 -19 -7 -29 -61 -62 -69 -42 -3 7 -6 5 -6 -5 -1 -10 -8 -18 -17 -18
-13 0 -14 -3 -4 -15 15 -18 0 -26 -44 -22 -38 3 -55 -23 -37 -57 14 -26 13
-33 -19 -81 -11 -16 -29 -48 -41 -70 -64 -118 -132 -226 -150 -235 -10 -6 -19
-17 -19 -24 0 -24 69 45 109 109 21 33 55 92 76 130 112 208 291 375 520 486
120 59 165 70 165 43 0 -11 27 -67 60 -126 l61 -106 42 41 c25 26 59 48 86 55
30 10 40 17 33 24 -7 7 -27 5 -64 -7 -30 -9 -63 -15 -74 -13 -11 2 -18 -2 -17
-9 2 -7 -2 -13 -7 -13 -6 0 -10 7 -10 16 0 9 -10 27 -22 39 -53 52 -65 72 -56
94 5 14 12 19 19 15 8 -4 9 -3 5 4 -4 6 -14 8 -23 5 -12 -5 -15 -2 -11 8 7 19
-12 20 -77 5z"/>
<path d="M2435 1225 c-60 -36 -88 -85 -93 -161 -4 -55 -1 -69 22 -108 37 -63
96 -96 170 -96 31 0 69 6 84 14 60 31 112 112 112 173 0 78 -52 163 -117 189
-53 22 -132 18 -178 -11z m145 -7 c14 -2 36 -14 49 -28 14 -14 29 -24 34 -22
5 1 6 -2 2 -8 -3 -5 -2 -10 3 -10 6 0 9 -13 8 -30 -1 -16 1 -30 4 -30 13 0 2
-87 -14 -119 -9 -17 -31 -41 -49 -51 -33 -21 -73 -27 -62 -11 8 14 -9 21 -25
10 -11 -6 -12 -9 -2 -9 7 0 10 -5 7 -10 -5 -8 -11 -7 -21 1 -7 6 -11 16 -7 23
5 8 3 8 -8 0 -8 -5 -21 -10 -29 -9 -8 1 -22 3 -30 4 -8 1 -27 19 -42 40 -48
68 -34 174 30 226 32 25 81 43 107 39 11 -1 31 -4 45 -6z"/>
<path d="M760 1211 c-109 -45 -170 -83 -158 -98 13 -16 3 -43 -16 -43 -8 0
-19 7 -24 15 -7 13 -19 7 -73 -33 -121 -93 -218 -212 -313 -382 -19 -36 -45
-80 -57 -98 -14 -21 -16 -31 -8 -28 8 2 27 7 43 11 25 5 28 9 23 34 -6 27 24
101 56 140 7 9 19 28 26 43 8 15 19 25 24 21 6 -3 7 -1 3 5 -7 11 -1 22 37 63
9 10 17 22 17 26 0 8 71 76 131 126 47 38 82 46 110 24 15 -11 10 -18 -37 -63
-29 -28 -56 -49 -60 -45 -4 3 -4 0 0 -6 4 -7 3 -13 -2 -13 -5 0 -25 -22 -43
-50 -19 -27 -39 -50 -46 -50 -7 0 -10 -7 -7 -15 4 -8 1 -15 -5 -15 -6 0 -11
-6 -11 -13 0 -14 -146 -308 -157 -316 -5 -3 -14 -18 -22 -33 -8 -15 -18 -25
-23 -22 -4 3 -8 -2 -8 -10 0 -14 -12 -20 -32 -17 -5 0 -7 -2 -5 -7 1 -4 -2 -8
-6 -9 -5 -1 -16 -10 -25 -20 -9 -10 -23 -19 -29 -20 -7 -2 -19 -4 -25 -5 -18
-4 -41 -28 -34 -35 3 -4 36 9 73 28 94 48 145 114 248 324 127 259 225 363
450 475 153 76 138 81 -25 8 -24 -11 -62 -31 -83 -45 -21 -13 -41 -22 -44 -20
-2 3 4 26 16 51 13 31 29 49 48 57 15 6 41 16 58 24 16 7 39 16 50 19 11 4 31
15 45 26 23 18 23 20 5 19 -11 0 -49 -13 -85 -28z"/>
<path d="M116 925 c-20 -20 -20 -20 -1 -39 17 -17 40 -12 49 9 2 7 -4 21 -13
30 -17 15 -20 15 -35 0z"/>
<path d="M1831 923 c-11 -12 -34 -14 -113 -11 l-99 3 2 -100 2 -100 -46 -30
c-42 -27 -45 -33 -51 -83 -3 -29 1 -157 9 -285 19 -291 22 -317 41 -317 11 0
13 19 8 112 -3 62 -9 160 -14 218 -17 187 -21 285 -13 295 4 6 29 28 55 49
l48 38 9 -23 c10 -24 10 -24 10 4 1 16 -5 30 -14 33 -12 5 -15 24 -15 85 l0
79 79 0 c96 0 88 24 96 -265 3 -116 8 -250 11 -300 8 -128 12 -212 13 -272 1
-42 4 -53 18 -53 15 0 16 16 10 167 -4 93 -12 294 -17 448 -13 347 -11 327
-29 308z"/>
<path d="M1428 909 c-6 -4 18 -10 53 -14 105 -11 101 -7 97 -83 -2 -55 -6 -67
-20 -66 -10 1 -18 -9 -22 -29 -8 -41 -2 -44 35 -16 30 24 31 26 33 120 l2 95
-84 0 c-46 -1 -88 -4 -94 -7z"/>
<path d="M2803 821 c-44 -22 -106 -62 -136 -89 -106 -96 -237 -152 -357 -152
-134 0 -234 -44 -289 -126 -34 -53 -38 -78 -17 -128 16 -39 24 -42 130 -56
124 -16 155 -29 216 -90 l55 -55 -74 -3 c-59 -2 -76 0 -83 13 -11 19 -62 20
-78 0 -8 -10 -31 -15 -65 -15 -52 0 -67 -10 -58 -37 4 -10 50 -13 188 -13 195
0 195 0 195 -51 0 -10 7 -19 15 -19 18 0 19 23 3 53 -7 12 -11 32 -9 43 1 12
-5 24 -13 27 -9 4 -16 17 -16 31 0 30 -65 91 -128 118 -25 11 -70 21 -99 22
-29 0 -53 4 -53 7 0 3 -11 4 -25 1 -16 -3 -25 0 -25 8 0 7 -8 10 -19 7 -15 -4
-22 2 -30 24 -7 19 -6 31 0 35 6 3 9 15 6 25 -3 11 -2 19 3 19 4 0 11 11 14
25 4 14 11 23 16 20 6 -3 10 -2 10 2 0 5 16 17 35 27 19 11 35 23 35 28 0 5 5
6 10 3 6 -4 16 -2 23 3 7 5 55 12 107 16 99 6 147 19 233 63 52 25 52 25 32 2
-30 -35 64 34 121 88 42 41 174 133 192 133 4 0 16 7 26 15 37 28 -7 16 -91
-24z"/>
<path d="M927 822 c-23 -25 -21 -38 5 -56 20 -14 24 -14 40 1 21 19 23 44 6
61 -17 17 -32 15 -51 -6z m43 -22 c0 -11 -7 -20 -15 -20 -8 0 -15 9 -15 20 0
11 7 20 15 20 8 0 15 -9 15 -20z"/>
<path d="M1974 825 c-8 -21 2 -45 19 -45 20 0 40 27 33 45 -7 19 -45 20 -52 0z"/>
<path d="M2785 767 c-25 -28 -26 -39 -9 -65 10 -15 17 -39 15 -54 -2 -21 2
-28 16 -29 35 -2 68 3 77 11 11 11 -12 42 -26 34 -5 -3 -15 0 -23 6 -12 10
-12 15 2 36 15 23 14 26 -7 49 -26 28 -31 29 -45 12z m35 -37 c0 -11 -7 -20
-15 -20 -8 0 -15 9 -15 20 0 11 7 20 15 20 8 0 15 -9 15 -20z"/>
<path d="M1506 742 c-3 -6 -8 -42 -11 -81 -2 -39 -13 -124 -24 -188 -11 -65
-23 -147 -26 -183 -4 -36 -10 -83 -15 -105 -5 -22 -12 -73 -16 -112 -5 -61 -4
-73 9 -73 18 0 19 8 51 260 28 219 51 479 43 486 -3 3 -8 1 -11 -4z"/>
<path d="M767 733 c-12 -11 -8 -40 6 -52 21 -17 51 10 43 37 -7 21 -35 30 -49
15z"/>
<path d="M382 687 c-26 -28 -28 -50 -6 -71 21 -21 57 -20 77 2 24 26 21 47 -9
71 -33 26 -36 26 -62 -2z m56 -19 c15 -15 -3 -48 -27 -48 -10 0 -24 7 -31 15
-25 30 29 62 58 33z"/>
<path d="M1116 618 c-3 -35 -10 -175 -16 -313 -6 -137 -13 -262 -16 -277 -5
-23 -2 -28 14 -28 20 0 24 26 37 265 8 133 2 401 -8 412 -3 2 -8 -24 -11 -59z"/>
<path d="M2670 665 c-11 -13 -11 -19 3 -32 14 -14 18 -14 41 5 23 17 24 20 8
26 -9 3 -22 8 -28 11 -6 3 -17 -1 -24 -10z"/>
<path d="M692 625 c-11 -14 -26 -25 -34 -25 -8 0 -23 -9 -32 -19 -21 -23 -14
-56 14 -71 25 -14 48 -3 66 31 8 16 21 29 28 29 7 0 19 7 26 15 11 13 11 20 0
40 -17 32 -43 32 -68 0z m-17 -75 c0 -8 -8 -16 -17 -18 -13 -2 -18 3 -18 18 0
15 5 20 18 18 9 -2 17 -10 17 -18z"/>
<path d="M2658 594 c-80 -43 -54 -164 35 -164 77 0 108 98 48 152 -36 32 -45
33 -83 12z m81 -40 c12 -15 21 -32 21 -39 0 -23 -41 -65 -65 -65 -34 0 -67 32
-67 63 0 64 73 90 111 41z"/>
<path d="M2970 483 c-39 -14 -180 -83 -218 -107 -24 -15 -56 -26 -77 -26 -32
0 -41 -8 -36 -34 1 -5 -9 -21 -21 -35 -68 -76 -101 -128 -112 -176 -5 -23 0
-18 23 22 45 80 87 130 160 185 65 49 269 158 297 158 8 0 14 5 14 10 0 11 -6
11 -30 3z"/>
<path d="M2885 411 c-219 -106 -343 -232 -381 -385 -11 -46 16 -27 33 23 16
48 68 133 105 171 23 24 62 56 118 98 44 33 164 99 203 111 20 7 37 17 37 22
0 15 -10 11 -115 -40z"/>
<path d="M2492 438 c-16 -16 -15 -35 1 -41 20 -8 39 8 35 28 -4 23 -20 29 -36
13z"/>
<path d="M2482 338 c-18 -18 -14 -46 8 -53 25 -8 40 1 40 25 0 25 -33 43 -48
28z"/>
<path d="M2791 237 c-8 -10 -7 -18 2 -31 12 -17 14 -17 28 0 8 11 9 15 2 10
-7 -4 -18 -4 -25 0 -8 5 -6 9 7 14 11 4 14 9 8 13 -6 4 -16 1 -22 -6z"/>
<path d="M2974 115 c-4 -8 -11 -12 -16 -9 -6 4 -5 -2 1 -14 6 -12 16 -24 22
-27 17 -11 23 3 8 21 -11 13 -11 18 -1 21 15 6 16 23 2 23 -6 0 -13 -7 -16
-15z"/>
</g>
</svg>
